# xmcd
#
# Track frame offsets:
#	150
#	17460
#	36427
#	52405
#	70032
#	86380
#	109027
#	120212
#	139710
#	154400
#	172590
#	205975
#
# Disc length: 2921 seconds
#
# Revision: 0
# Processed by: cddbd v1.4PL0 Copyright (c) Steve Scherf et al.
# Submitted via: audiograbber 1.82.01
#
DISCID=970b670c
DTITLE=Stexas - Valami Blues
DYEAR=1900
DGENRE=
TTITLE0=Gyere pénteken (Meghúztam a Margót)
TTITLE1=Az út felett
TTITLE2='62-es Fender Stratocaster
TTITLE3=Jegyeket, bérleteket
TTITLE4=In Stevie's Mood
TTITLE5=Valami blues
TTITLE6=Te vagy az...
TTITLE7=Álmaimban jaj de kemény
TTITLE8=Zsákbamacska
TTITLE9=Nem viszek el semmit
TTITLE10=Az álom leterít
TTITLE11=Szõrtüszõ
EXTD=
EXTT0=
EXTT1=
EXTT2=
EXTT3=
EXTT4=
EXTT5=
EXTT6=
EXTT7=
EXTT8=
EXTT9=
EXTT10=
EXTT11=
PLAYORDER=
